HIERARCHY
ROOT Spine
{
    OFFSET 0.0 0.0 -0.0
    CHANNELS 6 Xposition Yposition Zposition Zrotation Xrotation Yrotation
    JOINT ShoulderCenter
    {
        OFFSET 0.0 33.39867401123047 0.0
        CHANNELS 3 Zrotation Xrotation Yrotation
        JOINT LeftShoulder
        {
            OFFSET 19.018089294433594 0.0 0.0
            CHANNELS 3 Zrotation Xrotation Yrotation
            JOINT LeftElbow
            {
                OFFSET 29.74721908569336 0.0 0.0
                CHANNELS 3 Zrotation Xrotation Yrotation
                JOINT LeftHand
                {
                    OFFSET 33.25140380859375 0.0 0.0
                    CHANNELS 3 Zrotation Xrotation Yrotation
                    End Site
                    {
                        OFFSET 13.30056095123291 0.0 0.0
                    }
                }
            }
        }
        JOINT RightShoulder
        {
            OFFSET -19.018089294433594 0.0 0.0
            CHANNELS 3 Zrotation Xrotation Yrotation
            JOINT RightElbow
            {
                OFFSET -29.74721908569336 0.0 0.0
                CHANNELS 3 Zrotation Xrotation Yrotation
                JOINT RightHand
                {
                    OFFSET -33.25140380859375 0.0 0.0
                    CHANNELS 3 Zrotation Xrotation Yrotation
                    End Site
                    {
                        OFFSET -13.30056095123291 0.0 0.0
                    }
                }
            }
        }
        End Site
        {
            OFFSET 0.0 13.359467506408691 0.0
        }
    }
    JOINT LeftHip
    {
        OFFSET 16.93185373410558 -16.93185373410558 0.0
        CHANNELS 3 Zrotation Xrotation Yrotation
        JOINT LeftKnee
        {
            OFFSET 0.0 -40.64476013183594 0.0
            CHANNELS 3 Zrotation Xrotation Yrotation
            JOINT LeftFoot
            {
                OFFSET 0.0 -44.77838134765625 0.0
                CHANNELS 3 Zrotation Xrotation Yrotation
                End Site
                {
                    OFFSET 0.0 0.0 17.911354064941406
                }
            }
        }
    }
    JOINT RightHip
    {
        OFFSET -16.93185373410558 -16.93185373410558 0.0
        CHANNELS 3 Zrotation Xrotation Yrotation
        JOINT RightKnee
        {
            OFFSET 0.0 -40.64476013183594 0.0
            CHANNELS 3 Zrotation Xrotation Yrotation
            JOINT RightFoot
            {
                OFFSET 0.0 -44.77838134765625 0.0
                CHANNELS 3 Zrotation Xrotation Yrotation
                End Site
                {
                    OFFSET 0.0 0.0 17.911354064941406
                }
            }
        }
    }
}
MOTION
Frames: 6
Frame Time: 0.03333333333333333
33.29999923706055 13.199999809265137 -132.5 -5.847258243235925 -0.1716635410955374 78.63181295167132 2.2778419756153434e-08 -2.5589603925929816e-07 -16.55270578290013 103.33904142997446 6.201455338983408 168.1361583232914 -2.5096141690026217e-06 -4.0811270314026745e-06 31.64489316127689 0.0 -6.3611093629270335e-15 0.0 -95.43235348413415 0.8821818757069776 179.20202672132854 -1.935773064675144e-06 1.5797371198603222e-06 -23.531284975283032 0.0 0.0 -6.361109362927033e-15 13.791339711656903 6.42598944625806 -75.85955950525279 11.804040419649137 -3.952039823859372 16.822954503750445 -8.965747167914385e-33 -1.5902773407317584e-15 -6.460501696722769e-16 -11.522654702264111 -1.1859144802128734 72.75321396160533 -14.183963407180636 -0.02105022841263418 -0.39974619516698245 7.951386703658791e-16 -3.1805546814635164e-15 5.963540027744093e-16
33.79999923706055 13.199999809265137 -133.89999389648438 -4.663350803118584 2.9303791612281582 78.26455310123671 -1.6869167707727437e-07 -7.023268037624272e-07 -16.362496880448877 99.63022908359551 10.059069949020724 169.77983476578044 -3.407565435895578e-07 -1.7334435813575447e-06 31.278256330710413 3.1805546814635168e-15 -8.827812596100317e-32 -3.1805546814635168e-15 -99.8670315627162 -0.07026301226485694 -179.15602664494645 -5.836440244922794e-07 -1.2211114857992665e-06 -24.32289351465174 -6.3611093629270335e-15 3.531125038440127e-31 -6.3611093629270335e-15 10.354337717360636 7.163419041583451 -82.64014813335424 12.355557570137293 -2.533186935472916 11.911931443674582 0.0 0.0 4.9696166897867443e-17 -15.094781327785025 -0.7845497082260379 63.84444520017284 -14.000120916152452 -2.2216501567347597 -33.394261644308244 -1.5902773407317582e-15 -3.1805546814635164e-15 1.1927080055488186e-15
33.89999771118164 13.199999809265137 -133.89999389648438 -4.306314165502548 3.4376779825954067 78.50146947985331 -2.0603212873951259e-07 1.8668432183735018e-07 -17.283766355672018 99.72314041687724 9.715653190582346 169.99161990277685 -1.444076210628885e-06 3.6903278588222624e-06 32.35407258987756 3.1805546814635168e-15 8.827812596100317e-32 3.1805546814635168e-15 -100.58997333620214 -1.381505894500543 -177.31364568884442 1.2064570595046338e-06 -5.422645748840176e-06 -25.124030155785103 0.0 0.0 -6.3611093629270335e-15 10.257236541411837 7.297324097696032 -85.91551097647258 12.424234440133866 -1.7923196215405817 8.917948164604633 -3.9756933518293955e-16 7.765026077791789e-19 -4.9696166897867443e-17 -15.089712114146154 -0.3773059009145269 59.529885258248115 -13.782306003147612 -3.0835582870551335 -35.14070270039521 1.5902773407317582e-15 1.5902773407317582e-15 5.963540027744093e-16
33.89999771118164 13.300000190734863 -133.8000030517578 -4.319275305852583 3.2759823009046096 78.50359093593163 -2.8286388887174614e-07 -3.932645592089002e-07 -17.301010199565248 100.33261245772533 9.944949967972123 170.55571046085862 4.526037728021664e-06 1.2761816158140883e-06 33.26869239924575 3.180554681463516e-15 1.7655625192200634e-31 6.361109362927032e-15 -100.18931588527323 0.9099199068023643 -177.09309980766716 1.1837565463993904e-06 8.400894045599683e-07 -23.315550222890753 -6.361109362927033e-15 0.0 0.0 10.284445487838703 7.292800831283368 -85.16528022906765 12.408536838605933 -1.9199154310807502 9.619687424670303 -3.9756933518293955e-16 -1.7241821476758432e-34 4.9696166897867443e-17 -14.928658206781078 -0.358069847532815 60.2510925454781 -13.818795428866343 -2.912412478067524 -35.16341825111273 0.0 0.0 -4.373262687012336e-15
34.0 13.300000190734863 -133.8000030517578 -4.1471153458356635 3.448744894667351 78.48981330092293 1.0023860791367389e-07 3.9292797675233035e-07 -17.580918873287764 100.66036884238359 9.652921611033324 170.95360864715036 1.3355066316785255e-06 -1.8876248064802943e-06 34.143053042068175 6.3611093629270335e-15 -1.7655625192200634e-31 -3.1805546814635168e-15 -100.32338471585545 4.251161035878079 -176.8547137869979 -4.99247292609555e-07 -3.328391302239507e-06 -21.79210805015372 9.541664044390549e-15 0.0 0.0 9.918758944256915 7.536796941454702 -84.67736315051964 12.421276313880192 -2.1475922853451928 10.580600081733584 0.0 0.0 3.478731682850721e-16 -15.429138504633423 -0.147453522953217 61.959764640413155 -13.967199463066903 -2.858655118392559 -37.62205197059398 -1.5902773407317582e-15 1.5902773407317584e-15 -7.355032700884382e-15
34.0 13.300000190734863 -133.6999969482422 -4.1471157807800925 3.2766829767761454 78.18854883654184 -2.5392814763976065e-07 -2.3907491369146356e-08 -17.309979041929214 101.18506583829758 9.498381826005632 171.28828712636087 1.8885226812365748e-06 8.836991026937304e-07 35.059389692694516 0.0 0.0 -3.1805546814635168e-15 -100.07052101182019 5.946268745832578 -176.4144149695174 -4.159459046869429e-06 1.858049136653267e-06 -20.819242533290225 4.770832022195275e-15 0.0 0.0 10.048589909342146 7.623276682478857 -83.7495360086006 12.384443811799855 -2.12970424559049 10.289378660830245 0.0 0.0 -2.484808344893372e-16 -15.123969691265058 -0.16476807927831677 61.9266024320916 -13.966260706974657 -2.9346146995792584 -37.68077061477283 -1.5902773407317584e-15 1.3241718894150476e-31 -9.54166404439055e-15
